<svg xmlns="http://www.w3.org/2000/svg" viewBox="0 0 427.94 82.31"><g id="Layer_2" data-name="Layer 2"><g id="Layer_1-2" data-name="Layer 1"><path d="M9.92,31.92c0-16.38,0-19.32-.22-22.68C9.47,5.67,8.55,4,4.79,3.26A23.09,23.09,0,0,0,.91,2.94C.46,2.94,0,2.73,0,2.31c0-.63.57-.84,1.83-.84,5.13,0,12.32.31,12.89.31,1.37,0,8.56-.31,15.4-.31,11.29,0,32.17-.94,45.75,12A36,36,0,0,1,86.94,40.1,41.14,41.14,0,0,1,74.61,69.71C69.71,74.43,59.44,81.79,40,81.79c-4.9,0-10.95-.32-15.85-.64s-8.91-.62-9.47-.62c-.23,0-2.18,0-4.57.1s-4.9.21-6.62.21c-1.25,0-1.82-.21-1.82-.84,0-.32.23-.63.91-.63A18.92,18.92,0,0,0,6,79c2.29-.41,2.86-2.72,3.32-5.77.56-4.41.56-12.71.56-22.79Zm9.59,11.34c0,11.13.11,20.78.23,22.78.11,2.62.34,6.82,1.25,8,1.48,2,5.93,4.21,19.39,4.21,10.62,0,20.43-3.57,27.16-9.77,5.93-5.36,9.12-15.43,9.12-25.09a36.07,36.07,0,0,0-11-26.46C55,6.51,42,5,28.41,5c-2.28,0-6.5.31-7.42.73a1.9,1.9,0,0,0-1.37,2.1c-.11,3.58-.11,14.28-.11,22.37Z"/><path d="M113.12,50.39c0,10.09,0,18.37.57,22.79.35,3,1,5.35,4.46,5.77,1.59.21,4.11.42,5.13.42.68,0,.91.31.91.64,0,.52-.57.83-1.82.83-6.28,0-13.46-.31-14-.31s-7.75.31-11.18.31c-1.25,0-1.82-.21-1.82-.83,0-.33.23-.64.91-.64A18.92,18.92,0,0,0,99.66,79c2.28-.42,2.85-2.72,3.31-5.77.57-4.42.57-12.7.57-22.79V31.91c0-16.37,0-19.31-.23-22.67-.22-3.57-1.37-5.35-3.88-5.88a16.49,16.49,0,0,0-3.53-.42c-.46,0-.92-.21-.92-.63,0-.63.58-.84,1.84-.84,3.76,0,10.94.31,11.51.31s7.76-.31,11.19-.31c1.25,0,1.82.21,1.82.84,0,.42-.46.63-.92.63a19.42,19.42,0,0,0-2.84.31c-3.09.53-4,2.32-4.23,6-.23,3.36-.23,6.3-.23,22.67Z"/><path d="M200.32,1.47c5.13,0,10.61.31,11.87.31s5-.31,9.69-.31c1.26,0,2.06.11,2.06.74,0,.42-.46.73-1.26.73a10.74,10.74,0,0,0-2.74.32c-3.76.74-4.22,3-4.22,9.34l-.23,61.52c0,6.94-.22,7.46-1,7.46s-2.28-1.16-8.33-6.72c-1.26-1-17.68-16.49-29.78-28.46-13.23-13.12-26.13-26.35-29.78-30.12l1.49,50.28c.23,8.61,1.37,11.35,4.45,12.18a26.73,26.73,0,0,0,5.71.63c.56,0,.9.22.9.63,0,.63-.68.84-2,.84-6.5,0-11.06-.31-12.09-.31s-5.82.31-11,.31c-1.15,0-1.83-.1-1.83-.84,0-.41.34-.63.91-.63a17.46,17.46,0,0,0,4.68-.63c2.85-.73,3.42-3.78,3.42-13.33l.12-60.15c0-4.1.34-5.26,1.25-5.26s2.85,2.31,4,3.36c1.72,1.79,18.71,18.69,36.28,36,11.3,11.13,23.74,23.94,27.39,27.4L209,13.44c-.11-6.82-.91-9.13-4.46-10A32.8,32.8,0,0,0,199,2.94c-.79,0-.91-.31-.91-.73,0-.63.91-.74,2.28-.74"/><path d="M239.48,31.92c0-16.38,0-19.32-.23-22.68-.22-3.57-1.14-5.25-4.9-6a23.09,23.09,0,0,0-3.88-.32c-.46,0-.91-.21-.91-.63,0-.63.57-.84,1.82-.84,2.62,0,5.71,0,8.22.11l4.67.2c.81,0,23.51,0,26.13-.1a32.58,32.58,0,0,0,4.91-.52c.56-.11,1-.53,1.6-.53.34,0,.45.42.45,1,0,.73-.57,2-.91,4.93-.11,1-.35,5.67-.58,6.93-.11.53-.33,1.15-.79,1.15-.69,0-.92-.52-.92-1.36a10.43,10.43,0,0,0-.68-3.78c-.8-1.68-1.94-2.94-8.1-3.57-1.94-.21-14.37-.32-15.63-.32-.46,0-.69.32-.69,1.06v29c0,.74.12,1,.69,1,1.48,0,15.52,0,18.14-.21s4.34-.42,5.36-1.47c.8-.84,1.26-1.36,1.72-1.36s.57.21.57.83-.57,2.42-.92,5.89c-.23,2.09-.46,6-.46,6.72s0,2-.79,2c-.58,0-.8-.42-.8-.94a9.88,9.88,0,0,0-.46-3.47c-.46-1.47-1.47-3.25-5.93-3.68-3.08-.31-14.37-.52-16.32-.52-.57,0-.8.32-.8.73v9.24c0,3.58-.11,15.75,0,18,.35,7.24,2.06,8.6,13.24,8.6,3,0,8,0,10.95-1.15s4.34-3.25,5.13-7.56c.23-1.16.46-1.57,1-1.57s.69.84.69,1.57a92.33,92.33,0,0,1-1.49,10.18c-.79,2.73-1.7,2.73-6.15,2.73-8.56,0-14.84-.2-19.29-.3s-7.18-.32-8.9-.32c-.22,0-2.16,0-4.56.1s-4.9.22-6.62.22c-1.25,0-1.82-.22-1.82-.85,0-.32.23-.63.91-.63a19.13,19.13,0,0,0,3.43-.42c2.27-.41,2.85-2.72,3.3-5.77.57-4.41.57-12.71.57-22.79Z"/><path d="M303.11,31.91c0-16.38,0-19.31-.23-22.67-.23-3.57-1.14-5.24-4.91-6a23,23,0,0,0-3.87-.32c-.46,0-.92-.21-.92-.63,0-.63.57-.84,1.83-.84,5.14,0,12.32.31,12.89.31,1.26,0,9.93-.31,13.46-.31,7.19,0,14.83.63,20.88,4.62,2.85,1.89,7.88,7,7.88,14.28,0,7.77-3.54,15.54-13.81,24.25C345.67,55.65,353.43,65,360,71.5c6.16,6,11.07,7.14,13.92,7.56a30.14,30.14,0,0,0,4.45.31c.57,0,1,.31,1,.63,0,.63-.7.84-2.74.84h-8.1c-6.39,0-9.24-.52-12.21-2-4.91-2.41-8.89-7.55-15.4-15.43-4.8-5.77-10.16-12.81-12.44-15.53a1.89,1.89,0,0,0-1.48-.64L313,47c-.57,0-.8.31-.8.84v2.51c0,10.09,0,18.38.57,22.79.35,3,1,5.35,4.45,5.77,1.59.21,4.1.42,5.13.42.68,0,.91.31.91.63,0,.53-.57.84-1.82.84-6.28,0-13.46-.31-14-.31-.12,0-7.3.31-10.73.31-1.25,0-1.82-.21-1.82-.84,0-.32.22-.63.91-.63a19.25,19.25,0,0,0,3.43-.42c2.28-.42,2.84-2.72,3.3-5.77.57-4.41.57-12.7.57-22.79Zm9.13,9.14a1.36,1.36,0,0,0,.8,1.26c1.71.94,7,1.68,12,1.68,2.74,0,5.93-.32,8.55-2,4-2.52,7-8.19,7-16.17,0-13.13-7.53-21-19.73-21a37.51,37.51,0,0,0-7.64.63,1.27,1.27,0,0,0-.92,1.26Z"/><path d="M385.73,79.48c-1.6-.74-1.72-1.16-1.72-4,0-5.24.46-9.44.57-11.12.12-1.16.35-1.68.92-1.68s.8.31.8,1.16a17.15,17.15,0,0,0,.34,3.88c1.71,7.76,9.24,10.7,16.88,10.7,11,0,16.31-7.24,16.31-14,0-7.25-3.3-11.44-13.11-18.89l-5.13-3.89C389.49,32.55,386.75,26,386.75,18.9,386.75,7.66,395.88,0,410.37,0a47.8,47.8,0,0,1,10.6,1,20.5,20.5,0,0,0,4,.53c.91,0,1.14.2,1.14.73s-.45,4-.45,11.13c0,1.68-.23,2.41-.8,2.41s-.8-.53-.91-1.36a17.27,17.27,0,0,0-1.49-5.25c-.68-1.16-3.76-5.57-14.26-5.57-7.87,0-14,4.52-14,12.18,0,6,3,9.77,13.92,17.64l3.19,2.31c13.46,9.77,16.66,16.27,16.66,24.67a21.2,21.2,0,0,1-9.7,17.44c-4.91,3.15-11.06,4.4-17.23,4.4a37.15,37.15,0,0,1-15.28-2.83"/></g></g></svg>